<mxfile host="app.diagrams.net" modified="2022-03-30T14:13:13.905Z" agent="5.0 (Windows NT 10.0; Win64; x64) AppleWebKit/537.36 (KHTML, like Gecko) Chrome/99.0.4844.84 Safari/537.36" etag="9YbfaurQ35kckzTFHWjq" version="17.3.0" type="github">
  <diagram id="zNdNPr4lVqMTK5bKLDhT" name="Page-1">
    <mxGraphModel dx="2492" dy="1146" grid="0" gridSize="10" guides="1" tooltips="1" connect="1" arrows="1" fold="1" page="0" pageScale="1" pageWidth="850" pageHeight="1100" math="0" shadow="0">
      <root>
        <mxCell id="0" />
        <mxCell id="1" parent="0" />
        <mxCell id="0DIwounq8vrGswpK6Hn_-1" value="" style="rounded=0;whiteSpace=wrap;html=1;hachureGap=4;" vertex="1" parent="1">
          <mxGeometry x="111" y="206" width="119" height="111" as="geometry" />
        </mxCell>
        <mxCell id="0DIwounq8vrGswpK6Hn_-5" value="" style="rounded=0;whiteSpace=wrap;html=1;hachureGap=4;" vertex="1" parent="1">
          <mxGeometry x="121" y="216" width="119" height="111" as="geometry" />
        </mxCell>
        <mxCell id="0DIwounq8vrGswpK6Hn_-6" value="" style="rounded=0;whiteSpace=wrap;html=1;hachureGap=4;" vertex="1" parent="1">
          <mxGeometry x="131" y="226" width="119" height="111" as="geometry" />
        </mxCell>
        <mxCell id="0DIwounq8vrGswpK6Hn_-7" value="" style="rounded=0;whiteSpace=wrap;html=1;hachureGap=4;" vertex="1" parent="1">
          <mxGeometry x="141" y="236" width="119" height="111" as="geometry" />
        </mxCell>
      </root>
    </mxGraphModel>
  </diagram>
</mxfile>
